<svg width="90" height="40" viewBox="0 0 90 40" fill="none" xmlns="http://www.w3.org/2000/svg">
<path fill-rule="evenodd" clip-rule="evenodd" d="M79.9662 27.7826C79.9662 29.0751 79.9737 30.3601 79.9662 31.6526C79.9662 32.1376 79.9362 32.6163 79.9287 33.1026C79.9287 33.2063 79.875 33.2588 79.775 33.2663C79.6975 33.2738 79.6125 33.2738 79.5362 33.2738C78.99 33.2963 78.445 33.3188 77.8987 33.3488C77.69 33.3563 77.4912 33.3788 77.2837 33.3938C77.1525 33.4088 77.0987 33.3563 77.0837 33.2213C77.045 32.7576 77.0062 32.3026 76.9525 31.8388C76.8837 31.2488 76.8 30.6588 76.7375 30.0676C76.6675 29.4413 76.63 28.8063 76.5687 28.1713C76.53 27.7001 76.4837 27.2301 76.4387 26.7588C76.3987 26.3488 76.3612 25.9438 76.3237 25.5338C76.2762 25.0551 76.2312 24.5851 76.1912 24.1063C76.115 23.1426 76.0387 22.1713 75.9687 21.2076C75.9537 20.9388 75.9687 20.9476 76.2537 20.9238C76.8525 20.8788 77.4525 20.7976 78.0525 20.7751C78.5287 20.7601 79.005 20.7888 79.4825 20.8188C79.7212 20.8338 79.7662 21.0438 79.79 21.2301C79.8212 21.4763 79.8437 21.7238 79.86 21.9776C79.89 22.4938 79.92 23.0088 79.9287 23.5238C79.9587 24.9438 79.9737 26.3551 79.9975 27.7751C79.9825 27.7826 79.9737 27.7826 79.9662 27.7826ZM79.56 19.0563C79.56 19.2051 79.5137 19.2501 79.36 19.2288C78.905 19.1826 78.4525 19.1313 77.9987 19.0863C77.875 19.0713 77.8675 18.9963 77.8675 18.9076C77.8525 18.4363 77.845 17.9651 77.8287 17.5026C77.8062 16.5376 77.79 15.5676 77.7675 14.6026C77.76 14.3863 77.775 14.3713 77.9912 14.3863C78.4287 14.4101 78.8737 14.4326 79.3137 14.4626C79.5525 14.4763 79.5975 14.5138 79.5975 14.7451C79.605 15.4626 79.5975 16.1801 79.5975 16.8976C79.5912 16.9051 79.575 16.9051 79.56 16.9051C79.56 17.6213 79.56 18.3388 79.56 19.0563ZM77.0525 19.1763C76.7075 19.1913 76.3612 19.2138 76.015 19.2351C75.8762 19.2426 75.8075 19.2051 75.8 19.0638C75.7687 18.7276 75.7312 18.3913 75.6925 18.0626C75.6237 17.4951 75.5462 16.9338 75.4687 16.3663C75.4612 16.3213 75.4687 16.2701 75.4612 16.2176C75.4225 15.8738 75.3837 15.5301 75.345 15.1863C75.3312 15.0513 75.3237 14.9101 75.3387 14.7751C75.345 14.7238 75.4075 14.6413 75.4537 14.6338C75.8987 14.5663 76.345 14.5063 76.7912 14.4463C76.9212 14.4326 76.9675 14.4913 76.9762 14.6113C77.0212 15.3426 77.0687 16.0751 77.1137 16.8151C77.145 17.3613 77.1762 17.8988 77.2075 18.3763C77.2075 18.6313 77.2075 18.8163 77.2075 19.0038C77.2075 19.1088 77.1687 19.1688 77.0525 19.1763ZM74.355 31.5776C73.6625 31.6826 72.9712 31.6976 72.2787 31.5851C72.1237 31.5563 72.0712 31.4876 72.0637 31.3463C72.0025 30.5763 71.9325 29.8076 71.8637 29.0376C71.8412 28.8138 71.8175 28.5888 71.8025 28.3663C71.755 27.8351 71.7175 27.3051 71.6637 26.7813C71.6025 26.1988 71.51 25.6238 71.4475 25.0413C71.3862 24.5101 71.3412 23.9726 71.2787 23.4426C71.2025 22.7538 71.1175 22.0676 71.0337 21.3726C70.995 21.0513 70.9575 20.7363 70.91 20.4163C70.8412 19.9601 70.7637 19.5113 70.7025 19.0563C70.6487 18.6901 70.61 18.3238 70.5575 17.9576C70.4875 17.4651 70.4037 16.9713 70.3337 16.4788C70.2712 16.0601 70.2262 15.6413 70.1562 15.2238C70.0962 14.8351 70.0112 14.4463 69.9487 14.0576C69.895 13.7438 69.8575 13.4226 69.8025 13.1013C69.7337 12.6763 69.65 12.2576 69.58 11.8313C69.5175 11.4876 69.4712 11.1376 69.4112 10.7926C69.3425 10.4426 69.265 10.0901 69.195 9.74007C69.1337 9.42632 69.0812 9.10507 69.0262 8.79132C69.0125 8.70132 69.0425 8.64132 69.15 8.62632C69.2187 8.61882 69.2887 8.59007 69.3575 8.59007C69.9875 8.52882 70.6262 8.47757 71.2562 8.42507C71.4325 8.41007 71.61 8.42507 71.7862 8.42507C71.7787 8.41007 71.7787 8.40257 71.7787 8.38757C72.04 8.41757 72.3087 8.44007 72.5712 8.47007C72.7087 8.48382 72.7787 8.59007 72.7862 8.71632C72.84 9.36632 72.8862 10.0088 72.9312 10.6588C72.9787 11.3763 73.0237 12.0926 73.07 12.8101C73.1087 13.3626 73.1475 13.9163 73.1937 14.4688C73.255 15.1938 73.3175 15.9188 73.37 16.6351C73.3925 16.9051 73.41 17.1813 73.4237 17.4501C73.4625 17.9651 73.515 18.4813 73.555 18.9963C73.6087 19.6313 73.6475 20.2676 73.7012 20.8951C73.74 21.4401 73.7787 21.9863 73.8237 22.5301C73.8625 23.0913 73.9012 23.6438 73.9462 24.2038C74.0087 24.9213 74.07 25.6313 74.1312 26.3488C74.2 27.2301 74.2625 28.1113 74.3387 28.9938C74.4012 29.7776 74.47 30.5626 74.5387 31.3463C74.555 31.5113 74.5237 31.5476 74.355 31.5776ZM69.4712 24.5326C69.5412 25.1601 69.5962 25.7813 69.6562 26.4076C69.7337 27.1476 69.8262 27.8876 69.895 28.6188C69.9575 29.2538 69.9875 29.8976 70.0412 30.5326C70.08 31.0776 70.1262 31.6313 70.1725 32.1751C70.1725 32.2201 70.195 32.2576 70.21 32.3026C70.2475 32.4601 70.1725 32.5651 70.0025 32.5863C69.5412 32.6463 69.0812 32.7063 68.6187 32.7663C68.2812 32.8113 67.95 32.8701 67.6125 32.9301C67.4575 32.9526 67.4125 32.9151 67.3812 32.7726C67.32 32.4676 67.235 32.1538 67.1725 31.8463C67.135 31.6676 67.12 31.4813 67.0812 31.3013C67.005 30.9051 66.9125 30.5088 66.835 30.1126C66.72 29.5463 66.62 28.9688 66.505 28.4026C66.435 28.0588 66.35 27.7088 66.2812 27.3638C66.2287 27.1176 66.19 26.8788 66.1512 26.6313C66.09 26.3176 66.0362 26.0113 65.9737 25.6988C65.8987 25.3026 65.8287 24.9138 65.7512 24.5176C65.6825 24.1588 65.5975 23.7926 65.5287 23.4338C65.4812 23.2176 65.4437 22.9938 65.4062 22.7776C65.3137 22.2313 65.2212 21.6776 65.1362 21.1326C65.1287 21.0888 65.1287 21.0288 65.1212 20.9613C65.1125 20.7151 65.105 20.7076 65.3512 20.6626C65.7437 20.5801 66.1437 20.5201 66.5275 20.4226C67.005 20.3038 67.4962 20.3038 67.98 20.2363C68.2337 20.2076 68.48 20.2151 68.71 20.3113C68.7887 20.3413 68.8662 20.4376 68.8875 20.5201C69.1025 21.3276 69.2187 22.1563 69.2962 22.9863C69.3425 23.5013 69.42 24.0176 69.4712 24.5326ZM68.2962 18.6751C68.0112 18.6601 67.735 18.6313 67.4512 18.6226C67.32 18.6151 67.1812 18.6376 67.0512 18.6601C66.8662 18.6901 66.805 18.6526 66.7812 18.4726C66.72 18.0401 66.6675 17.6001 66.6125 17.1663C66.5662 16.8001 66.5512 16.4338 66.49 16.0751C66.42 15.7013 66.3887 15.3351 66.3662 14.9613C66.35 14.6851 66.2962 14.4163 66.2575 14.1413C66.2437 14.0051 66.305 13.9538 66.435 13.9538C66.6962 13.9601 66.9362 13.9538 67.1725 13.9463C67.405 13.9463 67.635 13.9463 67.865 13.9463C68.065 13.9463 68.1112 13.9976 68.1275 14.1851C68.1962 15.0438 68.2725 15.8963 68.3412 16.7551C68.3887 17.3301 68.4425 17.9051 68.4887 18.4813C68.5037 18.6451 68.465 18.6826 68.2962 18.6751ZM65.86 18.8476C65.5512 18.8776 65.2437 18.9288 64.9362 18.9738C64.8125 18.9901 64.775 18.9513 64.7525 18.8326C64.6525 18.3313 64.5287 17.8313 64.4225 17.3301C64.36 17.0463 64.3137 16.7551 64.2525 16.4713C64.1837 16.1576 64.0987 15.8513 64.0375 15.5376C63.9675 15.2163 63.915 14.8938 63.86 14.5738C63.8525 14.5363 63.915 14.4688 63.9525 14.4538C64.375 14.3426 64.7912 14.2451 65.2125 14.1413C65.4125 14.0951 65.4812 14.1551 65.5125 14.3563C65.5812 14.8126 65.6675 15.2688 65.7437 15.7176C65.79 16.0226 65.8287 16.3213 65.875 16.6288C65.9512 17.1501 66.0362 17.6663 66.1125 18.1901C66.1287 18.3088 66.1437 18.4201 66.1587 18.5338C66.1662 18.8101 66.1512 18.8163 65.86 18.8476ZM65.3512 28.7463C65.2362 29.5976 64.7975 30.2926 64.1987 30.8976C63.7375 31.3613 63.2225 31.7501 62.6462 32.0626C62.2075 32.3026 61.7762 32.5501 61.3312 32.7513C60.87 32.9601 60.385 33.1163 59.9087 33.2888C59.6162 33.3938 59.3162 33.4988 59.0175 33.5813C58.64 33.6851 58.2625 33.7826 57.8862 33.8788C57.5937 33.9538 57.2937 34.0363 57.0025 34.1026C56.7725 34.1551 56.5325 34.2013 56.295 34.2451C55.88 34.3201 55.4725 34.4026 55.0575 34.4701C54.6112 34.5363 54.1587 34.5813 53.7125 34.6338C53.19 34.6926 52.6662 34.7601 52.1437 34.8138C51.9125 34.8351 51.6825 34.8513 51.4587 34.8726C50.875 34.9101 50.29 34.9551 49.7062 34.9926C49.5837 35.0001 49.4675 34.9926 49.345 35.0001C49.245 35.0076 49.1912 34.9626 49.1837 34.8651C49.1762 34.8138 49.1675 34.7601 49.1675 34.7076C49.145 34.2901 49.115 33.8713 49.0912 33.4538C49.0675 33.0938 49.0612 32.7351 49.03 32.3701C48.9612 31.4438 48.8837 30.5251 48.8062 29.5976C48.76 29.0301 48.7225 28.4701 48.675 27.9026C48.6462 27.5076 48.6062 27.1026 48.5687 26.7063C48.515 26.1238 48.4612 25.5413 48.3987 24.9588C48.3837 24.7863 48.3537 24.6226 48.33 24.4513C48.3062 24.2638 48.2987 24.0838 48.275 23.8976C48.2537 23.6951 48.215 23.4938 48.1837 23.2926C48.1837 23.2776 48.1762 23.2626 48.1762 23.2476C48.13 22.8301 48.0912 22.4113 48.0375 22.0001C47.9762 21.5438 47.9062 21.0888 47.8462 20.6401C47.7775 20.1688 47.7225 19.6988 47.6462 19.2351C47.5762 18.8163 47.4987 18.3913 47.4225 17.9726C47.37 17.6738 47.3312 17.3738 47.285 17.0763C47.2075 16.6288 47.13 16.1801 47.0537 15.7326C47.0012 15.4088 46.9462 15.0888 46.8925 14.7676C46.8237 14.3951 46.7462 14.0138 46.67 13.6388C46.6237 13.4013 46.5775 13.1613 46.5387 12.9226C46.4625 12.5263 46.385 12.1301 46.3162 11.7263C46.2537 11.4138 46.2087 11.0988 46.14 10.7926C46.07 10.4576 45.985 10.1201 45.9162 9.78507C45.8612 9.53882 45.8237 9.29882 45.7775 9.05257C45.7087 8.72382 45.6387 8.39507 45.57 8.06507C45.5087 7.75257 45.4475 7.44632 45.3787 7.13132C45.355 7.00507 45.4162 6.94507 45.5312 6.90007C46.2012 6.65382 46.87 6.40757 47.5462 6.16882C48.2675 5.90632 48.9912 5.66007 49.7225 5.39882C50.0612 5.27882 50.3987 5.15382 50.7375 5.02507C50.875 4.97382 50.9137 4.99507 50.9062 5.15382C50.9062 5.45882 50.8912 5.76632 50.8912 6.07882C50.8912 6.15382 50.8912 6.22757 50.8912 6.29507C50.875 6.29507 50.86 6.29507 50.845 6.29507C50.845 8.52132 50.8362 10.7563 50.845 12.9813C50.8525 14.3651 50.875 15.7463 50.9137 17.1288C50.9437 18.0626 51.0062 18.9963 51.0587 19.9226C51.09 20.4088 51.1212 20.8863 51.1825 21.3726C51.2362 21.8276 51.3287 22.2838 51.4062 22.7401C51.4437 22.9863 51.4887 23.2401 51.5437 23.4863C51.5737 23.6063 51.6137 23.7326 51.6825 23.8376C51.7137 23.8826 51.82 23.8976 51.89 23.9126C51.935 23.9201 51.99 23.8826 52.0362 23.8826C52.7362 23.8601 53.4425 23.8151 54.1412 23.8238C54.6887 23.8301 55.235 23.8826 55.7725 23.9426C56.3187 24.0026 56.8637 24.0763 57.41 24.1738C57.8937 24.2563 58.3787 24.3751 58.8625 24.4801C59.2387 24.5626 59.625 24.6363 60.0012 24.7426C60.4537 24.8688 60.8912 25.0263 61.3387 25.1751C61.5987 25.2651 61.8687 25.3551 62.1225 25.4588C62.4462 25.5926 62.76 25.7363 63.0762 25.8851C63.275 25.9726 63.4687 26.0801 63.6525 26.1913C64.2675 26.5501 64.8512 26.9463 65.1825 27.5888C65.3675 27.9463 65.4062 28.3501 65.3512 28.7463ZM59.2475 28.8663C58.8862 28.7088 58.5312 28.5451 58.17 28.3876C57.8175 28.2376 57.4475 28.0963 57.095 27.9551C56.8562 27.8576 56.6175 27.7526 56.3725 27.6626C55.9412 27.5076 55.5112 27.3563 55.0725 27.2151C54.865 27.1326 54.6275 27.0801 54.4725 27.0351C54.1887 27.0213 54.1587 27.0576 54.165 27.2513C54.165 27.2751 54.1725 27.3051 54.1725 27.3276C54.2425 27.8201 54.3112 28.3063 54.3812 28.7988C54.4112 29.0001 54.4425 29.2013 54.4725 29.4038C54.5412 29.8588 54.6112 30.3226 54.6725 30.7788C54.7262 31.1601 54.7725 31.5401 54.8275 31.9213C54.8487 32.0626 54.9575 32.1013 55.0725 32.0188C55.3412 31.8313 55.6037 31.6376 55.8725 31.4501C56.3112 31.1451 56.7412 30.8313 57.1787 30.5251C57.625 30.2038 58.07 29.8901 58.5175 29.5688C58.7625 29.3888 59.0175 29.2101 59.2625 29.0226C59.3475 28.9626 59.3475 28.9038 59.2475 28.8663ZM44.5637 32.0488C44.5637 32.4063 44.5325 32.7576 44.525 33.1163C44.525 33.2063 44.4787 33.2513 44.3937 33.2663C44.355 33.2738 44.325 33.2738 44.2862 33.2826C43.7325 33.3038 43.1712 33.3338 42.6187 33.3563C42.3875 33.3701 42.1575 33.3938 41.9262 33.4013C41.7262 33.4088 41.695 33.3788 41.68 33.1913C41.6562 32.9226 41.6412 32.6463 41.6112 32.3701C41.5737 31.9363 41.5262 31.4963 41.4812 31.0638C41.4262 30.5326 41.3562 30.0013 41.3037 29.4638C41.2112 28.5676 41.1187 27.6776 41.0337 26.7813C40.965 26.0801 40.9112 25.3701 40.85 24.6676C40.8037 24.1738 40.765 23.6801 40.7262 23.1801C40.6812 22.5526 40.635 21.9251 40.5875 21.3051C40.5875 21.2601 40.5875 21.2151 40.5875 21.1713C40.6037 20.9688 40.635 20.9476 40.85 20.9313C41.4725 20.8788 42.0875 20.8113 42.7112 20.7751C43.0562 20.7526 43.4025 20.7813 43.7487 20.7976C43.9012 20.8051 44.055 20.8276 44.2012 20.8788C44.2712 20.9013 44.355 20.9926 44.37 21.0663C44.4325 21.3576 44.4937 21.6488 44.5012 21.9476C44.5487 23.9351 44.5787 25.9213 44.6175 27.9101C44.5937 27.9101 44.5787 27.9101 44.5637 27.9101C44.5637 29.2926 44.5637 30.6663 44.5637 32.0488ZM43.7562 19.2051C43.3787 19.1763 42.995 19.1313 42.6187 19.0863C42.5175 19.0788 42.5025 19.0113 42.495 18.9288C42.48 18.5026 42.4487 18.0713 42.4412 17.6438C42.4337 17.1663 42.4412 16.6876 42.4412 16.2101C42.4187 16.2101 42.4025 16.2101 42.3875 16.2101C42.3875 15.6638 42.3875 15.1263 42.3875 14.5813C42.3875 14.3951 42.4025 14.3713 42.595 14.3863C43.0325 14.4101 43.4712 14.4163 43.9012 14.4688C44.1862 14.4988 44.24 14.5138 44.24 14.8051C44.2175 16.1501 44.2087 17.4951 44.1712 18.8326C44.1562 19.3176 44.2012 19.2426 43.7562 19.2051ZM41.6025 19.1688C41.2962 19.1826 40.9887 19.2051 40.6887 19.2213C40.4737 19.2351 40.4262 19.2051 40.4037 19.0038C40.3425 18.4438 40.2887 17.8763 40.2275 17.3151C40.1875 16.9051 40.1425 16.5013 40.1037 16.0901C40.0662 15.7388 40.0275 15.3951 39.98 15.0438C39.9737 14.9551 39.9275 14.8726 39.9425 14.7913C39.95 14.7301 40.0187 14.6338 40.0725 14.6263C40.4737 14.5513 40.8725 14.4913 41.2725 14.4326C41.2575 14.4388 41.2575 14.4463 41.2575 14.4538C41.31 14.4538 41.3562 14.4538 41.4112 14.4538C41.5425 14.4463 41.6025 14.5063 41.6112 14.6338C41.6562 15.5676 41.695 16.5088 41.7487 17.4426C41.7725 17.9351 41.8262 18.4301 41.8562 18.9138C41.8725 19.1463 41.85 19.1601 41.6025 19.1688ZM37.2375 31.6313C37.1062 31.6151 36.9737 31.6076 36.8525 31.5713C36.7987 31.5563 36.7287 31.4876 36.7287 31.4438C36.675 30.9501 36.6362 30.4501 36.5825 29.9563C36.5287 29.3963 36.4687 28.8438 36.4062 28.2826C36.3837 28.0513 36.3675 27.8126 36.345 27.5813C36.2987 27.0351 36.26 26.4976 36.1987 25.9526C36.1362 25.4138 36.0525 24.8838 35.9837 24.3451C35.9212 23.8151 35.8837 23.2851 35.8137 22.7613C35.745 22.2163 35.66 21.6713 35.5912 21.1263C35.5375 20.7076 35.4987 20.2813 35.445 19.8626C35.3837 19.4001 35.3 18.9438 35.23 18.4813C35.23 18.4588 35.2212 18.4438 35.2212 18.4201C35.1687 17.9951 35.1225 17.5688 35.06 17.1438C34.9837 16.5901 34.9 16.0451 34.8075 15.4926C34.7537 15.1338 34.6837 14.7826 34.63 14.4326C34.5687 14.0201 34.515 13.6163 34.4375 13.2063C34.33 12.6088 34.215 12.0113 34.1075 11.4051C34.045 11.0476 34 10.6813 33.9312 10.3226C33.8687 10.0013 33.8 9.68757 33.7312 9.36632C33.6925 9.17132 33.645 8.98507 33.6237 8.79132C33.615 8.74632 33.6612 8.66507 33.7 8.64882C33.7925 8.61132 33.9 8.59632 34.0075 8.59007C34.6225 8.52882 35.245 8.47757 35.86 8.42507C36.045 8.41007 36.2212 8.41007 36.475 8.39507C36.6525 8.41007 36.9137 8.43257 37.175 8.47007C37.3275 8.49132 37.39 8.60382 37.405 8.73882C37.4287 8.94757 37.4512 9.15757 37.4587 9.36632C37.5062 10.1438 37.5512 10.9126 37.5975 11.6901C37.635 12.2726 37.6825 12.8563 37.7275 13.4376C37.7812 14.1413 37.8512 14.8351 37.905 15.5376C37.99 16.5613 38.0662 17.5851 38.1437 18.6001C38.22 19.5726 38.29 20.5363 38.3587 21.5076C38.3975 22.0676 38.435 22.6351 38.49 23.1951C38.5587 23.9801 38.6437 24.7563 38.705 25.5413C38.7662 26.3026 38.8112 27.0576 38.8737 27.8201C38.9275 28.5376 38.9962 29.2613 39.05 29.9788C39.0812 30.3751 39.0975 30.7713 39.12 31.1676C39.1275 31.2338 39.1512 31.3013 39.1662 31.3688C39.1975 31.4963 39.1512 31.5563 39.0125 31.5776C38.4212 31.6751 37.8362 31.7051 37.2375 31.6313ZM34 23.7188C34.0687 24.3088 34.1137 24.9001 34.1825 25.4888C34.2612 26.2363 34.3537 26.9826 34.43 27.7301C34.4925 28.3351 34.5312 28.9401 34.5762 29.5388C34.6225 30.0988 34.6525 30.6513 34.7062 31.2126C34.7375 31.5563 34.7912 31.8851 34.83 32.2126C34.8375 32.6463 34.83 32.5788 34.3925 32.6538C33.8762 32.7438 33.355 32.8113 32.8387 32.8776C32.615 32.9076 32.3937 32.9301 32.17 32.9526C32.055 32.9676 32.0162 32.8938 32 32.8038C31.9312 32.4526 31.87 32.0938 31.8012 31.7413C31.7475 31.4813 31.6862 31.2188 31.6312 30.9576C31.5625 30.6363 31.5 30.3151 31.4387 29.9938C31.3687 29.6663 31.3087 29.3438 31.24 29.0151C31.17 28.6788 31.1162 28.3426 31.0475 28.0138C30.9937 27.7451 30.9325 27.4838 30.8787 27.2151C30.8162 26.9088 30.7475 26.6013 30.6925 26.2963C30.5925 25.7651 30.51 25.2338 30.4087 24.7126C30.34 24.3676 30.255 24.0326 30.1937 23.6876C30.14 23.3901 30.1025 23.0838 30.0475 22.7851C29.995 22.4626 29.9325 22.1426 29.8787 21.8201C29.8237 21.5138 29.7712 21.2151 29.725 20.9088C29.695 20.7288 29.725 20.7001 29.9087 20.6626C30.34 20.5801 30.77 20.5138 31.1937 20.4163C31.6862 20.2963 32.1925 20.2726 32.6925 20.2363C32.8612 20.2301 33.0312 20.2301 33.1925 20.2438C33.3762 20.2601 33.5075 20.3938 33.5387 20.5963C33.63 21.1776 33.7312 21.7613 33.815 22.3438C33.8837 22.7988 33.9462 23.2563 34 23.7188ZM32.9162 18.6751C32.47 18.6676 32.0237 18.6601 31.5775 18.6601C31.4775 18.6601 31.4387 18.6151 31.4312 18.5338C31.4 18.3388 31.3612 18.1376 31.34 17.9426C31.2787 17.4426 31.225 16.9338 31.17 16.4263C31.1312 16.0676 31.0925 15.7101 31.055 15.3513C31.0162 14.9701 30.9712 14.5888 30.9325 14.2076C30.9325 14.1851 30.9237 14.1551 30.9237 14.1338C30.8937 13.9976 30.9162 13.9601 31.07 13.9538C31.3012 13.9538 31.5462 13.9538 31.8012 13.9463C32.0237 13.9463 32.2537 13.9463 32.4787 13.9463C32.6687 13.9463 32.7075 13.9751 32.7312 14.1626C32.7775 14.5813 32.8162 14.9988 32.855 15.4176C32.9237 16.1801 32.985 16.9338 33.0462 17.6963C33.0612 17.8988 33.0612 18.1076 33.0762 18.3088C33.0762 18.3538 33.085 18.4051 33.1 18.4513C33.145 18.6376 33.115 18.6751 32.9162 18.6751ZM29.495 18.9901C29.455 18.9513 29.3787 18.8988 29.3575 18.8326C29.2862 18.5701 29.2325 18.3088 29.1787 18.0488C29.095 17.6588 29.0175 17.2713 28.9412 16.8813C28.8875 16.6126 28.8337 16.3363 28.7787 16.0676C28.7175 15.7838 28.6487 15.5001 28.5875 15.2163C28.5412 15.0138 28.4962 14.8051 28.4637 14.6026C28.4562 14.5601 28.5175 14.4688 28.565 14.4538C28.9712 14.3426 29.3712 14.2451 29.7787 14.1476C30.04 14.0876 30.1162 14.1413 30.155 14.4463C30.21 14.8126 30.24 15.1788 30.2937 15.5438C30.355 15.9476 30.4412 16.3526 30.5012 16.7551C30.5637 17.1726 30.6162 17.5851 30.6787 18.0026C30.7012 18.1738 30.7475 18.3388 30.7787 18.5026C30.8162 18.6976 30.7787 18.7876 30.5925 18.8163C30.2475 18.8851 29.8937 18.9288 29.495 18.9901ZM29.7637 27.4988C29.9637 27.8726 30.025 28.2901 29.9712 28.7088C29.9025 29.2176 29.725 29.6888 29.4412 30.1213C29.14 30.5688 28.7712 30.9576 28.3562 31.3013C27.7112 31.8388 26.98 32.2651 26.2187 32.6163C25.6812 32.8626 25.1125 33.0638 24.5512 33.2738C24.2275 33.3938 23.905 33.4988 23.575 33.5951C23.2362 33.6938 22.8987 33.7738 22.56 33.8563C22.2287 33.9388 21.8975 34.0276 21.5675 34.0951C21.2987 34.1551 21.03 34.1851 20.7525 34.2376C20.4375 34.2976 20.1312 34.3638 19.8075 34.4088C19.3462 34.4763 18.885 34.5438 18.4237 34.5963C17.87 34.6626 17.3075 34.7313 16.7475 34.7901C16.47 34.8201 16.2012 34.8351 15.925 34.8513C15.3012 34.8876 14.6712 34.9326 14.0487 34.9701C13.8187 34.9851 13.8187 34.9701 13.8025 34.7451C13.765 34.1113 13.7175 33.4838 13.6787 32.8488C13.6412 32.3026 13.6037 31.7576 13.565 31.2188C13.51 30.5463 13.4575 29.8676 13.4037 29.1951C13.365 28.7538 13.3412 28.3063 13.3037 27.8651C13.2412 27.1776 13.1725 26.4976 13.1025 25.8101C13.0725 25.4813 13.0425 25.1601 13.0025 24.8313C12.95 24.3901 12.8887 23.9576 12.8337 23.5163C12.7812 23.0838 12.75 22.6426 12.695 22.2088C12.6487 21.8063 12.58 21.3951 12.5275 20.9926C12.4587 20.4901 12.3887 19.9976 12.3112 19.4976C12.2412 19.0713 12.1575 18.6451 12.0887 18.2188C12.035 17.8901 11.9962 17.5613 11.95 17.2413C11.8962 16.8901 11.8275 16.5376 11.765 16.1876C11.6812 15.6788 11.5887 15.1788 11.505 14.6701C11.4425 14.2901 11.3812 13.9163 11.3125 13.5351C11.2037 12.9976 11.0887 12.4601 10.9812 11.9151C10.92 11.5851 10.8675 11.2563 10.805 10.9351C10.7425 10.6138 10.6662 10.2926 10.5975 9.96382C10.5437 9.70882 10.4975 9.44882 10.4437 9.19382C10.3737 8.85882 10.305 8.52882 10.2362 8.19257C10.1575 7.82757 10.075 7.46007 10.0062 7.08757C9.97372 6.94507 10.0825 6.90007 10.1887 6.86257C10.6037 6.71257 11.0125 6.56382 11.4262 6.41382C11.8112 6.27382 12.1962 6.13882 12.58 6.00382C12.8725 5.90007 13.1725 5.78757 13.4637 5.67507C13.8562 5.53382 14.2412 5.39882 14.6337 5.25757C14.795 5.19632 14.9475 5.13757 15.11 5.08507C15.1862 5.05632 15.2725 5.02507 15.3562 5.01007C15.5025 4.98007 15.5412 5.01757 15.5325 5.16007C15.5175 5.57757 15.51 5.99632 15.495 6.42257C15.4862 6.74382 15.4862 7.05757 15.4862 7.37882C15.4862 8.31257 15.4862 9.24757 15.4862 10.1801C15.4625 10.2026 15.4562 10.2026 15.4487 10.2026C15.4487 11.0776 15.4325 11.9513 15.4487 12.8251C15.4862 14.6113 15.525 16.4038 15.5862 18.1901C15.61 18.9676 15.6725 19.7513 15.725 20.5276C15.755 20.9388 15.8012 21.3426 15.8487 21.7463C15.8787 22.0301 15.91 22.3138 15.9712 22.5976C16.0487 22.9713 16.14 23.3376 16.24 23.7038C16.2937 23.8976 16.3637 23.9276 16.57 23.8826C16.5862 23.8826 16.6012 23.8751 16.6175 23.8751C17.3862 23.8538 18.155 23.8238 18.915 23.8151C19.2837 23.8151 19.6612 23.8376 20.0225 23.8826C20.5 23.9351 20.9675 24.0176 21.445 24.0913C21.9837 24.1738 22.5137 24.2638 23.0437 24.3613C23.3525 24.4201 23.6587 24.5038 23.9587 24.5776C24.2975 24.6601 24.6362 24.7488 24.9737 24.8463C25.2737 24.9288 25.5812 25.0263 25.8737 25.1238C26.1887 25.2276 26.5037 25.3401 26.8112 25.4663C27.0812 25.5788 27.35 25.7126 27.6112 25.8326C28.1112 26.0638 28.5712 26.3488 29.01 26.6776C29.31 26.9088 29.5862 27.1701 29.7637 27.4988ZM23.8125 28.8363C23.7437 28.8063 23.6737 28.7763 23.605 28.7463C23.1975 28.5813 22.7975 28.4188 22.3912 28.2538C21.9287 28.0588 21.4675 27.8576 21 27.6776C20.545 27.5076 20.0762 27.3488 19.615 27.1988C19.4075 27.1101 19.1912 27.0726 19.0462 27.0351C18.7837 27.0288 18.7462 27.0726 18.77 27.2601C18.7925 27.4163 18.8225 27.5738 18.8462 27.7376C18.8762 27.9176 18.8925 28.1038 18.9225 28.2826C18.9775 28.6126 19.0312 28.9326 19.085 29.2613C19.1462 29.6726 19.2 30.0913 19.2537 30.5088C19.3225 30.9801 19.4 31.4501 19.4687 31.9288C19.4925 32.0626 19.6 32.1088 19.715 32.0338C19.7537 32.0113 19.7837 31.9738 19.8225 31.9526C20.3687 31.5626 20.9062 31.1751 21.4525 30.7863C21.8675 30.4876 22.2837 30.1813 22.705 29.8813C23.0837 29.6126 23.4587 29.3588 23.8362 29.0826C23.99 28.9688 23.9737 28.9113 23.8125 28.8363Z" fill="#00F0FF"/>
</svg>
