<svg width="586" height="48" viewBox="0 0 586 48" fill="none" xmlns="http://www.w3.org/2000/svg">
<mask id="path-1-inside-1_374_10301" fill="white">
<path fill-rule="evenodd" clip-rule="evenodd" d="M586 0V29.8571L569.35 48H0V25H12V23H0V0H586Z"/>
</mask>
<path fill-rule="evenodd" clip-rule="evenodd" d="M586 0V29.8571L569.35 48H0V25H12V23H0V0H586Z" fill="#212121"/>
<path d="M586 29.8571L586.737 30.5333L587 30.2465V29.8571H586ZM586 0H587V-1H586V0ZM569.35 48V49H569.79L570.087 48.6761L569.35 48ZM0 48H-1V49H0V48ZM0 25V24H-1V25H0ZM12 25V26H13V25H12ZM12 23H13V22H12V23ZM0 23H-1V24H0V23ZM0 0V-1H-1V0H0ZM587 29.8571V0H585V29.8571H587ZM570.087 48.6761L586.737 30.5333L585.263 29.181L568.613 47.3239L570.087 48.6761ZM0 49H569.35V47H0V49ZM-1 25V48H1V25H-1ZM12 24H0V26H12V24ZM11 23V25H13V23H11ZM0 24H12V22H0V24ZM-1 0V23H1V0H-1ZM586 -1H0V1H586V-1Z" fill="#212121" mask="url(#path-1-inside-1_374_10301)"/>
</svg>
